<?xml version="1.0" encoding="UTF-8"?>
<!DOCTYPE svg PUBLIC "-//W3C//DTD SVG 1.1//EN" "http://www.w3.org/Graphics/SVG/1.1/DTD/svg11.dtd">
<!-- Creator: CorelDRAW X6 -->
<svg xmlns="http://www.w3.org/2000/svg" xml:space="preserve" width="210mm" height="297mm" version="1.1" style="shape-rendering:geometricPrecision; text-rendering:geometricPrecision; image-rendering:optimizeQuality; fill-rule:evenodd; clip-rule:evenodd"
viewBox="0 0 21000 29700"
 xmlns:xlink="http://www.w3.org/1999/xlink">
 <defs>
  <style type="text/css">
   <![CDATA[
    .str0 {stroke:#373435;stroke-width:20}
    .fil6 {fill:#373435}
    .fil1 {fill:#FEFEFE}
    .fil3 {fill:#050505}
    .fil0 {fill:#E20703}
    .fil5 {fill:#F8F8F8}
    .fil4 {fill:#FEFEFE}
    .fil2 {fill:#050505;fill-rule:nonzero}
   ]]>
  </style>
 </defs>
 <g id="Capa_x0020_1">
  <metadata id="CorelCorpID_0Corel-Layer"/>
  <rect class="fil0" x="3538" y="12921" width="4577" height="3890"/>
  <g id="_934614016">
   <polygon class="fil1" points="4353,13524 4624,13524 4081,14268 3537,13524 3808,13524 3808,12926 4353,12926 "/>
  </g>
  <path class="fil2" d="M3862 12980l0 598 -218 0 437 598 437 -598 -218 0 0 -598 -437 0zm0 299m-109 299m109 299m437 0m109 -299m-109 -299m-218 -299"/>
  <path class="fil3" d="M1479 13120c1186,161 1025,-216 1483,-333l5 4032 454 10 26 -4382c206,-195 2972,-1973 3220,-2049 767,423 1620,1037 2361,1514 396,255 803,519 1200,772 689,440 648,548 1543,440 -67,-98 45,-14 -134,-160 -58,-48 -100,-62 -162,-101 -107,-67 -211,-131 -323,-200l-1910 -1242c-769,-504 -1802,-1248 -2573,-1650 -313,107 -5003,3133 -5192,3349z"/>
  <polygon class="fil0" points="13183,13343 13927,11815 15556,13460 19679,13461 19462,13218 15764,13223 14070,11440 10160,11422 11602,12402 "/>
  <path class="fil3" d="M13830 13113l538 -2 8 -516c-205,-74 -331,-63 -540,-18l-7 537z"/>
  <g id="_934620096">
   <polygon class="fil3" points="6203,12075 6540,12075 6540,11698 6203,11697 "/>
   <polygon class="fil3" points="6200,11633 6536,11633 6537,11255 6200,11255 "/>
   <polygon class="fil3" points="6637,11635 6974,11635 6974,11258 6637,11257 "/>
   <polygon class="fil3" points="6638,12077 6975,12077 6975,11699 6638,11699 "/>
  </g>
  <g id="_934620256">
   <path class="fil1" d="M15799 16421l1 -3 145 1 5 48c3,32 11,79 35,106 24,8 36,7 48,-4 21,-34 26,-62 31,-102l5 -49 158 2 58 0 6 48c5,38 12,76 34,108l43 0c21,-34 30,-62 35,-108l5 -49 8 0 0 -1 210 3 4 48c4,44 14,74 35,106l43 0c21,-32 30,-66 34,-106l5 -48 9 0 0 -3 209 2 6 47c7,59 14,71 37,107l42 0c22,-30 31,-72 35,-108l6 -48 156 2 61 0 5 48c4,38 13,76 34,107l43 0c22,-34 30,-61 35,-109l6 -48 8 0 0 -1 210 3 4 49c4,46 12,73 34,105l46 1c19,-29 29,-75 31,-105l4 -49 10 0 0 -3 208 2 6 47c4,36 13,72 32,103 5,8 20,10 35,9 7,-1 13,-4 16,-9 21,-34 27,-62 31,-102l4 -49 146 1 0 1 74 0 4 49c3,38 12,73 33,104l52 2c23,-30 31,-73 36,-109l6 -48 210 3 5 48c4,46 12,73 34,106l51 0c22,-34 30,-61 35,-109l6 -48 208 2 6 47c5,43 15,74 36,107l54 1c19,-29 29,-75 31,-105l4 -49 211 0 6 47c5,40 13,77 36,109 21,3 46,6 54,-7 21,-34 27,-62 31,-102l4 -49 146 1 11 39c15,52 23,160 46,201l7 12 0 141 -1372 0 0 1 -3738 0 0 0 -3960 0 0 -1 -3751 0 0 -157 10 -14c18,-29 29,-142 42,-184l12 -39 145 1 5 48c3,32 11,79 35,105 37,13 46,4 68,-30 13,-23 15,-47 18,-73l5 -49 210 -1 6 48c5,39 13,77 35,109 21,3 46,6 55,-8 21,-35 27,-63 31,-103l5 -49 210 3 4 48c4,44 14,74 35,106l51 0c21,-33 31,-62 35,-108l5 -49 209 2 6 47c7,59 14,71 37,107l51 1c20,-31 30,-64 32,-103l3 -50 213 -1 5 48c4,39 13,77 35,109 21,3 46,6 55,-8 21,-35 27,-63 31,-103l5 -49 210 3 4 49c4,46 12,73 34,106l51 1c21,-34 30,-62 35,-108l5 -49 208 2 6 47c4,36 13,72 32,103 7,12 33,10 54,7 22,-32 31,-67 36,-108l5 -48 212 -1 4 49c3,38 12,73 33,104l52 2c23,-30 31,-73 36,-109l6 -48 210 3 5 48c4,46 12,73 34,106l51 0c22,-34 30,-61 35,-109l6 -48 208 2 6 47c5,43 15,74 36,107l54 1c19,-29 29,-75 31,-105l4 -49 211 0 6 47c5,40 13,77 36,109 21,3 46,6 54,-7 21,-34 27,-62 31,-102l4 -49 146 1 0 0 64 0 5 48c3,32 11,79 35,105 37,13 46,4 68,-30 13,-23 15,-47 18,-73l5 -49 210 -1 6 48c5,39 13,77 35,109 21,3 46,6 55,-8 21,-35 27,-63 31,-103l5 -49 210 3 4 48c4,44 14,74 35,106l51 0c21,-33 31,-62 35,-108l5 -49 209 2 6 47c7,59 14,71 37,107l51 1c20,-31 30,-63 32,-103l3 -50 213 -1 5 48c4,39 13,77 35,109 21,3 46,6 55,-8 21,-35 27,-63 31,-103l5 -49 210 3 4 49c4,46 12,73 34,106l51 1c21,-34 30,-62 35,-108l5 -49 208 2 6 47c4,36 13,72 32,103 7,12 33,10 54,7 22,-32 31,-67 36,-108l5 -48 212 -1 4 49c3,38 12,73 33,104l52 2c23,-30 31,-73 36,-109l6 -48 210 3 5 48c4,46 12,73 34,106l51 0c22,-34 30,-61 35,-109l6 -48 208 2 6 47c5,43 15,74 36,107l54 1c19,-29 29,-75 31,-105l4 -49 211 0 6 47c5,40 13,77 36,109 20,3 46,6 54,-7 21,-34 27,-62 31,-102l4 -49 52 0 0 0 145 1 5 48c3,32 11,79 35,106 37,13 46,4 68,-30 13,-23 15,-47 18,-73l5 -49 210 -1 6 48c5,39 13,77 35,109 21,3 46,6 55,-8 21,-35 27,-63 31,-103l5 -49 210 3 4 48c4,44 14,74 35,106l51 0c21,-33 31,-62 35,-108l5 -49 209 2 6 47c7,59 14,71 37,107l51 1c20,-31 30,-63 32,-103l3 -50 75 0z"/>
  </g>
  <g id="_934616064">
   <path class="fil3" d="M6928 16673l0 84 3852 0 0 -73c-27,-47 -34,-154 -51,-212l-56 0c-5,54 -15,87 -38,126 -26,43 -69,38 -130,29 -35,-40 -51,-85 -60,-152l-113 0c-5,63 -27,123 -61,154l-106 -1c-32,-43 -53,-85 -61,-154l-112 -1c-9,76 -27,110 -61,157l-107 -1c-35,-44 -54,-81 -61,-155l-112 -1c-8,69 -27,122 -67,158l-102 -3c-34,-39 -53,-86 -59,-152l-114 0c-7,66 -26,112 -59,151 -59,10 -105,14 -130,-28 -21,-35 -33,-76 -39,-124l-112 -1c-8,75 -28,112 -61,157l-107 -1c-35,-44 -54,-81 -61,-155l-112 -2c-6,54 -14,85 -39,125 -27,43 -69,38 -130,29 -34,-38 -52,-87 -60,-152l-114 1c-4,66 -26,112 -58,154l-108 -1c-36,-57 -51,-68 -61,-154l-112 -1c-8,74 -28,112 -61,157l-107 -1c-32,-42 -54,-83 -61,-155l-112 -2c-6,53 -14,86 -39,125 -27,43 -69,39 -130,29 -35,-39 -52,-86 -60,-152l-113 0c-4,39 -8,66 -26,96 -24,38 -53,83 -143,49 -37,-31 -54,-85 -60,-147l-56 0c-12,40 -26,169 -50,201z"/>
   <path class="fil3" d="M10680 16674l0 84 3852 0 0 -73c-27,-47 -34,-154 -51,-212l-56 0c-5,54 -15,87 -38,126 -26,43 -69,38 -130,29 -35,-40 -51,-85 -60,-152l-113 0c-5,63 -27,123 -61,154l-106 -1c-32,-43 -53,-85 -61,-154l-112 -1c-9,76 -27,110 -61,157l-107 -1c-35,-44 -54,-81 -61,-155l-112 -1c-8,69 -27,122 -67,158l-102 -3c-34,-39 -53,-86 -59,-152l-114 0c-7,66 -26,112 -59,151 -59,10 -105,14 -130,-28 -21,-35 -33,-76 -39,-124l-112 -1c-8,75 -28,112 -61,157l-107 -1c-35,-44 -54,-81 -61,-155l-112 -2c-6,54 -14,85 -39,125 -27,43 -69,38 -130,29 -34,-38 -52,-87 -60,-152l-114 1c-4,66 -26,112 -58,154l-108 -1c-36,-57 -51,-68 -61,-154l-112 -1c-8,74 -28,112 -61,157l-107 -1c-32,-42 -54,-83 -61,-155l-112 -2c-6,53 -14,86 -39,125 -27,43 -69,39 -130,29 -35,-39 -52,-86 -60,-152l-113 0c-4,39 -8,66 -26,96 -24,38 -53,83 -143,49 -37,-31 -54,-85 -60,-147l-56 0c-12,40 -26,169 -50,201z"/>
   <path class="fil3" d="M14417 16674l0 84 3852 0 0 -73c-27,-47 -34,-154 -51,-212l-56 0c-5,54 -15,87 -38,126 -26,43 -69,38 -130,29 -35,-40 -51,-85 -60,-152l-113 0c-5,63 -27,123 -61,154l-106 -1c-32,-43 -53,-85 -61,-154l-112 -1c-9,76 -27,110 -61,157l-107 -1c-35,-44 -54,-81 -61,-155l-112 -1c-8,69 -27,122 -67,158l-102 -3c-34,-39 -53,-86 -59,-152l-114 0c-7,66 -26,112 -59,151 -59,10 -105,14 -130,-28 -21,-35 -33,-76 -39,-124l-112 -1c-8,75 -28,112 -61,157l-107 -1c-35,-44 -54,-81 -61,-155l-112 -2c-6,54 -14,85 -39,125 -27,43 -69,38 -130,29 -34,-38 -52,-87 -60,-152l-114 1c-4,66 -26,112 -58,154l-108 -1c-36,-57 -51,-68 -61,-154l-112 -1c-8,74 -28,112 -61,157l-107 -1c-32,-42 -54,-83 -61,-155l-112 -2c-6,53 -14,86 -39,125 -27,43 -69,39 -130,29 -35,-39 -52,-86 -60,-152l-113 0c-4,39 -8,66 -26,96 -24,38 -53,83 -143,49 -37,-31 -54,-85 -60,-147l-56 0c-12,40 -26,169 -50,201z"/>
   <path class="fil3" d="M15790 16673l0 84 3852 0 0 -73c-27,-47 -34,-154 -51,-212l-56 0c-5,54 -15,87 -38,126 -26,43 -69,38 -130,29 -35,-40 -51,-85 -60,-152l-113 0c-5,63 -27,123 -61,154l-106 -1c-32,-43 -53,-85 -61,-154l-112 -1c-9,76 -27,110 -61,157l-107 -1c-35,-44 -54,-81 -61,-155l-112 -1c-8,69 -27,122 -67,158l-102 -3c-34,-39 -53,-86 -59,-152l-114 0c-7,66 -26,112 -59,151 -59,10 -105,14 -130,-28 -21,-35 -33,-76 -39,-124l-112 -1c-8,75 -28,112 -61,157l-107 -1c-35,-44 -54,-81 -61,-155l-112 -2c-6,54 -14,85 -39,125 -27,43 -69,38 -130,29 -34,-38 -52,-87 -60,-152l-114 1c-4,66 -26,112 -58,154l-108 -1c-36,-57 -51,-68 -61,-154l-112 -1c-8,74 -28,112 -61,157l-107 -1c-32,-42 -54,-83 -61,-155l-112 -2c-6,53 -14,86 -39,125 -27,43 -69,39 -130,29 -35,-39 -52,-86 -60,-152l-113 0c-4,39 -8,66 -26,96 -24,38 -53,83 -143,49 -37,-31 -54,-85 -60,-147l-56 0c-12,40 -26,169 -50,201z"/>
  </g>
  <g id="_934616800">
   <path class="fil1" d="M7409 16248c-6,-16 -13,-34 -18,-41 -7,-3 -17,-6 -23,-7 -31,-2 -80,-36 -106,-51l-27 -16 0 -156 21 -16c49,-38 81,-53 135,-62l18 -43c-4,-7 -8,-13 -12,-19 -29,-46 -40,-83 -38,-138l1 -27 22 -15c19,-13 32,-21 45,-41l17 -29 33 3c57,5 104,21 149,51 13,-6 26,-11 40,-17 4,-24 11,-48 22,-71 9,-19 21,-37 31,-57l15 -31 158 4 16 18c40,47 57,82 66,136l42 17c65,-50 148,-75 216,-7 29,30 54,65 52,109 -2,42 -30,79 -52,115 3,10 10,27 17,44 52,9 97,26 139,64l18 16 -1 157 -28 15c-18,10 -36,21 -55,30 -23,11 -47,18 -71,23 -4,10 -9,20 -13,30 -1,3 -3,7 -5,11 62,90 79,148 -5,229 -62,60 -151,39 -212,-11l-41 16c-9,52 -26,84 -58,133l-16 25 -163 -3 -15 -27c-32,-58 -46,-72 -56,-128l-42 -17c-38,24 -79,51 -124,50 -39,0 -71,-19 -98,-46 -49,-50 -56,-76 -33,-145 10,-30 21,-50 39,-75 0,-1 1,-1 1,-2zm350 -478c-159,35 -259,183 -223,344 36,161 183,256 344,224 159,-32 257,-189 222,-346 -35,-159 -184,-257 -343,-222z"/>
  </g>
  <path class="fil3" d="M7747 15717c208,-46 371,94 408,263 46,212 -102,378 -265,411 -184,37 -364,-69 -407,-265 -48,-213 101,-372 264,-408zm-32 -53c-42,12 -64,25 -97,38 -36,-29 -79,-52 -146,-58 -17,28 -34,40 -60,58 -3,85 34,102 55,154l-40 94c-72,8 -94,20 -139,55l0 98c123,72 41,26 125,56 26,9 38,50 55,96 -15,31 -32,40 -48,88 -18,55 -9,61 20,90 60,61 102,18 178,-26l95 40c10,82 23,85 54,140l102 2c29,-44 46,-71 54,-142l102 -41c22,27 104,91 162,36 51,-49 60,-72 -4,-164 -21,-31 -10,-20 26,-116 83,-14 84,-23 140,-53l1 -101c-40,-36 -82,-48 -142,-56 -12,-44 -43,-88 -28,-113 44,-73 78,-100 13,-165 -55,-55 -124,-11 -167,31l-101 -41c-8,-69 -20,-96 -57,-138l-100 -3c-29,58 -42,61 -52,144z"/>
  <path class="fil4" d="M7799 15822c123,-15 224,75 239,182 42,302 -403,339 -432,60 -14,-138 77,-227 192,-242zm314 257c26,-170 -104,-311 -243,-331 -179,-26 -311,94 -337,243 -65,380 519,477 579,89z"/>
  <path class="fil3" d="M7811 15964c93,-22 117,123 31,147 -92,26 -142,-120 -31,-147zm-16 -91c-227,49 -151,373 67,326 76,-16 144,-99 123,-198 -16,-79 -95,-149 -191,-128z"/>
  <path class="fil5" d="M7765 15723c192,-36 339,97 371,255 80,405 -544,538 -627,115 -38,-193 103,-342 256,-371zm-15 -23c-163,36 -312,196 -264,408 44,196 223,302 407,265 163,-33 311,-199 265,-411 -37,-168 -200,-309 -408,-263z"/>
  <path class="fil3" d="M8113 16079c-61,388 -644,291 -579,-89 25,-148 158,-269 337,-243 139,20 269,162 243,331zm-347 -356c-153,28 -295,178 -256,371 84,422 707,290 627,-115 -31,-158 -179,-291 -371,-255z"/>
  <path class="fil3" d="M7634 16071c-43,-265 344,-306 378,-66 37,259 -339,305 -378,66zm165 -250c-116,14 -206,104 -192,242 28,279 473,242 432,-60 -15,-107 -116,-197 -239,-182z"/>
  <path class="fil5" d="M7794 15873c95,-21 175,50 191,128 20,99 -48,182 -123,198 -218,47 -294,-277 -67,-326zm-161 198c39,239 414,193 378,-66 -34,-239 -421,-199 -378,66z"/>
  <path class="fil4" d="M7811 15964c-111,27 -61,173 31,147 86,-24 62,-169 -31,-147z"/>
  <circle class="fil1" cx="5893" cy="14866" r="1624"/>
  <path class="fil3" d="M6871 13859c32,382 1,1121 1,1584 0,156 5,361 5,361 -123,127 -304,265 -651,353l1 153c198,25 522,-169 673,-318 233,-231 270,-292 404,-592 65,-145 111,-380 110,-557 -2,-196 -32,-392 -106,-552 -73,-158 -101,-270 -241,-428 -104,-118 -210,-233 -348,-316 -129,-77 -326,-161 -499,-190l5 164c330,60 491,192 647,338z"/>
  <path class="fil3" d="M4908 13871c-32,382 -1,1121 -1,1584 0,156 -5,361 -5,361 123,127 304,265 651,353l-1 153c-198,25 -522,-169 -673,-318 -233,-231 -270,-292 -404,-592 -65,-145 -111,-380 -110,-557 2,-196 32,-392 106,-552 73,-158 101,-270 241,-428 104,-118 210,-233 348,-316 129,-77 326,-161 499,-190l-5 164c-330,60 -491,192 -647,338z"/>
  <path class="fil3" d="M5087 15518l479 -4c0,-6 14,-1213 14,-1315l-492 1c-15,71 -16,1255 -1,1319z"/>
  <path class="fil3" d="M6211 15521l479 -4c0,-6 14,-1213 14,-1315l-492 1c-15,71 -16,1255 -1,1319z"/>
  <path class="fil6" d="M5764 16382l253 -1 4 -3074 -243 -1c0,0 -15,3076 -15,3076z"/>
  <ellipse class="fil1 str0" cx="5328" cy="14858" rx="135" ry="128"/>
  <ellipse class="fil1 str0" cx="6452" cy="14861" rx="135" ry="128"/>
  <path class="fil2" d="M9542 14765l-180 33c8,-36 11,-66 11,-90 0,-156 -94,-234 -282,-234 -149,0 -223,53 -223,161 0,80 83,149 249,206 320,110 480,273 480,489 0,127 -45,228 -135,305 -90,76 -210,115 -359,115 -331,0 -496,-128 -496,-384 0,-21 2,-46 6,-77l187 -41c-15,57 -22,106 -22,148 0,166 95,248 285,248 152,0 228,-60 228,-179 0,-89 -91,-167 -273,-234 -263,-96 -394,-251 -394,-463 0,-120 44,-217 132,-290 88,-73 203,-110 346,-110 293,0 440,132 440,397zm1468 -375l0 1336 -375 0 0 -929 -260 929 -216 0 -267 -913 0 913 -130 0 0 -1336 393 0 229 807 228 -807 398 0zm837 0l372 1336 -389 0 -79 -290 -402 0 -85 290 -152 0 395 -1336 340 0zm-461 911l328 0 -158 -590 -170 590zm938 425l0 -1336 574 0c149,0 269,31 358,94 89,63 134,148 134,254 0,162 -96,268 -288,317 98,37 162,77 191,120 29,44 49,129 59,254 12,150 37,249 75,297l-420 0c-27,-62 -40,-139 -40,-232l-2 -79 -2 -99c0,-154 -62,-231 -186,-231l-66 0 0 641 -387 0zm387 -751l78 0c147,0 220,-77 220,-230 0,-154 -73,-230 -220,-230l-78 0 0 461zm1815 -585l0 134 -327 0 0 1202 -411 0 0 -1202 -331 0 0 -134 1068 0zm1224 615l551 0 0 721 -123 0 -42 -92c-108,76 -221,114 -342,114 -198,0 -352,-59 -461,-178 -109,-118 -164,-285 -164,-500 0,-209 58,-379 174,-508 116,-130 267,-194 455,-194 247,0 397,126 450,379l-182 83 0 -32 -3 -72c-12,-158 -85,-237 -219,-237 -98,0 -165,42 -201,125 -36,83 -54,239 -54,467 0,213 15,357 44,433 29,76 84,115 167,115 96,0 144,-53 144,-160l0 -329 -194 0 0 -134zm1347 -615l372 1336 -389 0 -79 -290 -402 0 -85 290 -152 0 395 -1336 340 0zm-461 911l328 0 -158 -590 -170 590zm1873 -911l0 134 -327 0 0 1202 -411 0 0 -1202 -331 0 0 -134 1068 0zm966 0l0 134 -479 0 0 405 403 0 0 134 -403 0 0 529 561 0 0 134 -948 0 0 -1336 865 0z"/>
 </g>
</svg>
